<svg width="1000" height="1000" viewBox="0 0 1000 1000" fill="none" xmlns="http://www.w3.org/2000/svg">
<path d="M50 25H950C963.807 25 975 36.1929 975 50V950C975 963.807 963.807 975 950 975H50C36.1929 975 25 963.807 25 950V50C25 36.1929 36.1929 25 50 25Z" stroke="black" stroke-width="50"/>
<path d="M314 694C384.7 694 442 636.7 442 566C442 495.3 384.7 438 314 438C243.3 438 186 495.3 186 566C186 636.7 243.3 694 314 694ZM403.6 726H386.9C364.7 736.2 340 742 314 742C288 742 263.4 736.2 241.1 726H224.4C150.2 726 90 786.2 90 860.4V902C90 928.5 111.5 950 138 950H490C516.5 950 538 928.5 538 902V860.4C538 786.2 477.8 726 403.6 726Z" fill="black"/>
<path d="M50 50H950V350H50V50Z" fill="black"/>
<path d="M604.321 528.328H898.679C904.932 528.328 910 523.264 910 517.016V488.734C910 482.486 904.932 477.422 898.679 477.422H604.321C598.068 477.422 593 482.486 593 488.734V517.016C593 523.264 598.068 528.328 604.321 528.328ZM604.321 641.453H898.679C904.932 641.453 910 636.389 910 630.141V601.859C910 595.611 904.932 590.547 898.679 590.547H604.321C598.068 590.547 593 595.611 593 601.859V630.141C593 636.389 598.068 641.453 604.321 641.453ZM604.321 754.578H898.679C904.932 754.578 910 749.514 910 743.266V714.984C910 708.736 904.932 703.672 898.679 703.672H604.321C598.068 703.672 593 708.736 593 714.984V743.266C593 749.514 598.068 754.578 604.321 754.578Z" fill="black"/>
<path d="M50.6502 310V50.3636H113.404V160.151H116.827L202.654 50.3636H276.564L184.525 166.237L278.212 310H203.161L138.506 207.946L113.404 239.64V310H50.6502Z" fill="white"/>
<path d="M292.823 101.327V50.3636H512.272V101.327H433.544V310H371.678V101.327H292.823Z" fill="white"/>
<path d="M542.92 310V50.3636H650.172C669.611 50.3636 686.387 54.1669 700.502 61.7735C714.701 69.2955 725.646 79.8178 733.337 93.3406C741.028 106.779 744.873 122.414 744.873 140.248C744.873 158.165 740.943 173.843 733.083 187.281C725.308 200.635 714.194 210.988 699.741 218.341C685.289 225.694 668.132 229.371 648.27 229.371H582.093V179.928H636.607C646.073 179.928 653.975 178.28 660.314 174.984C666.737 171.688 671.597 167.082 674.893 161.165C678.189 155.165 679.837 148.192 679.837 140.248C679.837 132.218 678.189 125.288 674.893 119.456C671.597 113.54 666.737 108.976 660.314 105.765C653.891 102.553 645.988 100.947 636.607 100.947H605.674V310H542.92Z" fill="white"/>
<path d="M950 180C950 251.797 891.797 310 820 310C748.203 310 690 251.797 690 180C690 108.203 748.203 50 820 50C891.797 50 950 108.203 950 180ZM804.963 248.834L901.415 152.382C904.69 149.107 904.69 143.797 901.415 140.521L889.554 128.66C886.279 125.385 880.968 125.385 877.692 128.66L799.032 207.32L762.308 170.595C759.033 167.32 753.722 167.32 750.446 170.595L738.585 182.456C735.31 185.732 735.31 191.042 738.585 194.317L793.102 248.833C796.377 252.109 801.687 252.109 804.963 248.834Z" fill="#E10000"/>
</svg>
