<svg width="900" height="260" viewBox="0 0 900 260" fill="none" xmlns="http://www.w3.org/2000/svg">
<path d="M0 260V0.363586H62.7538V110.151H66.1768L152.004 0.363586H225.914L133.875 116.237L227.562 260H152.511L87.8558 157.946L62.7538 189.64V260H0Z" fill="black"/>
<path d="M242.173 51.327V0.363586H461.622V51.327H382.894V260H321.028V51.327H242.173Z" fill="black"/>
<path d="M492.27 260V0.363586H599.522C618.961 0.363586 635.737 4.16688 649.852 11.7735C664.051 19.2955 674.996 29.8178 682.687 43.3406C690.378 56.779 694.223 72.414 694.223 90.248C694.223 108.165 690.293 123.843 682.433 137.281C674.658 150.635 663.544 160.988 649.091 168.341C634.639 175.694 617.482 179.371 597.62 179.371H531.443V129.928H585.957C595.423 129.928 603.325 128.28 609.664 124.984C616.087 121.688 620.947 117.082 624.243 111.165C627.539 105.165 629.187 98.192 629.187 90.248C629.187 82.218 627.539 75.288 624.243 69.456C620.947 63.54 616.087 58.976 609.664 55.765C603.241 52.553 595.338 50.947 585.957 50.947H555.024V260H492.27Z" fill="black"/>
<path d="M899.35 130C899.35 201.797 841.147 260 769.35 260C697.553 260 639.35 201.797 639.35 130C639.35 58.203 697.553 0 769.35 0C841.147 0 899.35 58.203 899.35 130ZM754.313 198.834L850.765 102.382C854.04 99.107 854.04 93.797 850.765 90.521L838.904 78.66C835.629 75.385 830.318 75.385 827.042 78.66L748.382 157.32L711.658 120.595C708.383 117.32 703.072 117.32 699.796 120.595L687.935 132.456C684.66 135.732 684.66 141.042 687.935 144.317L742.452 198.833C745.727 202.109 751.037 202.109 754.313 198.834Z" fill="#E10000"/>
</svg>
